<?xml version="1.0" encoding="UTF-8" standalone="no"?>
<svg
   xmlns:dc="http://purl.org/dc/elements/1.1/"
   xmlns:cc="http://creativecommons.org/ns#"
   xmlns:rdf="http://www.w3.org/1999/02/22-rdf-syntax-ns#"
   xmlns:svg="http://www.w3.org/2000/svg"
   xmlns="http://www.w3.org/2000/svg"
   width="2200"
   height="550"
   viewBox="0 0 582.08332 145.52084"
   version="1.1"
   id="svg8">
  <defs
     id="defs2" />
  <metadata
     id="metadata5">
    <rdf:RDF>
      <cc:Work
         rdf:about="">
        <dc:format>image/svg+xml</dc:format>
        <dc:type
           rdf:resource="http://purl.org/dc/dcmitype/StillImage" />
        <dc:title></dc:title>
      </cc:Work>
    </rdf:RDF>
  </metadata>
  <g
     id="layer1">
    <g
       aria-label="KUPAD"
       id="text22"
       style="font-style:normal;font-variant:normal;font-weight:normal;font-stretch:normal;font-size:131.197px;line-height:81.9975px;font-family:Shojumaru;-inkscape-font-specification:'Shojumaru, Normal';font-variant-ligatures:normal;font-variant-caps:normal;font-variant-numeric:normal;font-variant-east-asian:normal;text-align:start;letter-spacing:0px;word-spacing:0px;writing-mode:lr-tb;text-anchor:start;fill:#ff0066;fill-opacity:1;stroke:none;stroke-width:0.264583">
      <path
         id="path858"
         style="font-style:normal;font-variant:normal;font-weight:normal;font-stretch:normal;font-size:131.197px;font-family:Shojumaru;-inkscape-font-specification:'Shojumaru, Normal';font-variant-ligatures:normal;font-variant-caps:normal;font-variant-numeric:normal;font-variant-east-asian:normal;fill:#ff0066;stroke-width:0.264583;fill-opacity:1"
         d="m 568.55729,65.04106 q 0.89685,7.687325 -0.76873,14.990283 -1.60153,7.238898 -5.31707,13.709062 -3.65148,6.470165 -9.16073,11.851295 -5.44518,5.38112 -12.17159,9.28885 -6.66235,3.90772 -14.34968,6.0858 -7.62326,2.17807 -15.69495,2.17807 -5.31707,0 -10.95444,-1.34528 -5.57331,-1.28122 -10.82631,-4.80458 -5.7655,0.70467 -11.91536,2.17808 -6.0858,1.4734 -12.62002,3.84366 5.76549,-17.23242 9.0326,-34.592961 3.33118,-17.424602 3.4593,-35.233571 -2.24214,1.024977 -4.54833,2.370259 -2.3062,1.28122 -4.54834,2.882746 0.25625,-1.665587 0.32031,-3.203052 0.12812,-1.601526 0.12812,-3.203051 0,-7.815447 -2.3062,-14.734039 -2.24213,-6.982653 -6.66234,-13.196574 2.37025,-0.768733 5.63737,-1.409343 3.26711,-0.64061 6.91859,-1.153099 3.71554,-0.512488 7.5592,-0.896854 3.90772,-0.384366 7.5592,-0.640611 3.65148,-0.256244 6.85454,-0.384366 3.20305,-0.128122 5.50924,-0.128122 9.48104,0 17.87303,1.601526 8.392,1.537465 15.43871,4.420212 7.04672,2.818685 12.55597,6.854531 5.57331,3.971784 9.41697,8.840423 3.84366,4.804578 5.89362,10.377888 2.04995,5.573311 2.04995,11.595048 0,0.960916 0,1.985892 0,0.960916 -0.12812,1.921832 1.60152,-0.512489 3.01087,-0.960916 1.40934,-0.512488 2.75462,-1.089038 z m -29.27589,5.253005 q -1.21716,-4.035845 -3.52336,-7.174836 -2.24214,-3.138991 -5.18895,-5.509249 -2.88274,-2.370259 -6.27798,-3.971785 -3.33117,-1.601525 -6.79047,-2.690563 -3.39523,-1.089038 -6.72641,-1.601526 -3.33117,-0.576549 -6.21392,-0.832794 -0.38436,15.694955 -0.38436,31.197726 0,14.221551 0.38436,28.314982 6.27799,-1.85777 11.72317,-5.12489 5.50925,-3.267109 9.35291,-7.943565 3.90773,-4.740517 5.82956,-10.890376 1.92183,-6.14986 1.1531,-13.645002 1.4734,0 3.13899,0 1.66559,0 3.52336,-0.128122 z M 455.36142,87.84679 q -2.9468,1.665587 -5.95767,3.138991 -3.01087,1.473404 -6.0858,2.754624 3.33117,6.726405 7.04671,12.940335 3.71554,6.14985 7.87951,12.10753 -10.69819,0 -20.37141,2.11402 -9.60915,2.17807 -18.96207,6.85453 0.51249,-1.66559 0.70468,-3.65148 0.19218,-1.92183 0.19218,-4.09991 0,-3.84366 -0.76873,-8.45606 -0.70468,-4.61239 -2.11402,-9.80133 -3.39523,0.51248 -6.79047,0.76873 -3.33117,0.25624 -6.59829,0.25624 -5.63737,0 -10.95443,-0.89685 -5.31707,-0.89686 -10.31383,-2.754627 -1.1531,5.957677 -2.17808,12.043477 -1.02497,6.0858 -1.98589,12.4919 -3.26711,-1.79371 -7.23889,-3.20305 -3.4593,-1.21716 -8.19982,-2.24214 -4.74051,-0.96091 -10.57007,-0.96091 -4.61239,0 -9.73728,0.83279 -5.12488,0.89685 -10.57007,2.94681 4.99676,-5.44519 9.28885,-10.95444 4.35615,-5.57331 7.87951,-10.698193 3.52336,-5.188944 6.27798,-9.673217 2.75463,-4.484273 4.6124,-7.751386 -1.85777,-2.562441 -3.52336,-5.509249 -1.66559,-2.946808 -3.01087,-6.342043 2.56244,1.409343 5.12488,2.626503 2.62651,1.153099 5.18895,2.242136 v -0.128122 q 3.45929,-7.110775 7.2389,-13.901245 3.7796,-6.79047 8.13575,-13.132513 -0.89686,-2.178075 -2.24214,-4.9327 -1.28122,-2.754625 -2.81869,-5.765493 -1.53746,-3.010869 -3.26711,-6.021738 -1.66559,-3.010869 -3.33117,-5.701432 6.34204,1.793709 12.94033,2.946807 6.66235,1.089038 13.70906,1.409343 3.71554,-3.587418 7.68732,-6.598287 3.97179,-3.010868 8.392,-5.381127 -1.53746,2.882747 -3.01087,5.829555 -1.4734,2.946807 -2.88275,6.021737 3.77961,-0.192183 7.55921,-0.704671 3.7796,-0.512489 7.5592,-1.281221 2.75462,10.954438 6.02174,21.460448 3.26711,10.50601 7.23889,20.627654 3.26712,-1.85777 6.34205,-3.971784 3.07493,-2.178076 6.21392,-4.548334 1.98589,7.623264 4.48427,14.22155 2.49838,6.598287 5.76549,12.427842 z m -46.31613,-8.64824 q -5.70143,-13.709062 -13.645,-28.250918 -2.43432,6.982653 -4.67645,14.349672 -2.17808,7.302959 -4.22803,15.310589 1.66559,0.128122 3.33117,0.192183 1.66559,0.06406 3.33118,0.06406 4.03584,0 7.94357,-0.384367 3.97178,-0.384366 7.94356,-1.28122 z m -62.4595,-39.141295 q -1.02498,6.918593 -3.71554,13.773124 -2.62651,6.854531 -6.66235,13.132512 -3.97179,6.213921 -9.22479,11.595048 -5.18895,5.317067 -11.40287,9.288851 -6.14986,3.907723 -13.19657,6.14986 -6.98265,2.242136 -14.54186,2.242136 -3.33117,0 -6.47016,-0.384366 0.12812,6.21392 0.3203,12.42784 0.19219,6.14986 0.51249,12.36378 -1.79371,-0.19218 -3.65148,-0.38436 -1.85777,-0.12813 -3.84366,-0.12813 -7.36702,0 -15.56683,1.66559 -8.13575,1.72965 -17.1043,4.86864 3.58742,-10.57007 6.14986,-21.2042 2.6265,-10.634137 4.22803,-21.524513 -5.06082,-3.459297 -8.58418,-6.918593 -3.4593,-3.459296 -5.18894,-5.701432 3.45929,1.089038 7.17483,1.985892 3.7796,0.896855 7.62327,1.665587 0.51248,-4.804578 0.76873,-9.545094 0.25624,-4.740517 0.25624,-9.609156 V 52.03667 q -3.90772,1.28122 -7.75138,2.754624 -3.84367,1.473404 -7.43108,3.267113 0.96091,-3.587418 1.4734,-6.982653 0.51249,-3.395235 0.51249,-6.662348 0,-5.57331 -1.40934,-10.698193 -1.40935,-5.124883 -3.97179,-9.8654 14.92622,-2.306198 26.77752,-3.138991 11.91535,-0.832794 21.2042,-0.832794 4.35615,0 9.8654,0.256245 5.57331,0.192183 11.40286,1.024976 5.89362,0.768733 11.65911,2.306198 5.7655,1.537464 10.57007,4.292089 4.80458,2.690564 8.19982,6.726409 3.45929,3.971784 4.61239,9.673217 v 0.256244 q 1.66559,-0.960916 3.20305,-1.985892 1.60153,-1.089038 3.20306,-2.370259 z m -47.46923,4.356151 q -3.39524,0 -7.55921,0.320305 -4.16396,0.320305 -9.48103,1.024977 -0.3203,7.687324 -0.51249,15.310588 -0.19218,7.623263 -0.19218,15.246527 4.99676,-0.64061 9.35291,-2.178075 4.35615,-1.537465 7.68733,-4.228029 3.39523,-2.690563 5.57331,-6.598287 2.24213,-3.971784 2.88274,-9.416972 2.75463,-0.512489 5.44519,-0.960916 2.75462,-0.448427 5.57331,-1.024977 v -0.128122 q -1.4734,-1.793709 -3.07493,-3.13899 -1.60153,-1.409343 -3.71554,-2.306198 -2.11401,-0.960915 -4.99676,-1.409343 -2.88275,-0.512488 -6.98265,-0.512488 z M 230.63531,28.654391 q 0,22.421363 -4.16397,39.910026 -4.16397,17.424603 -12.42784,29.404017 -8.19982,11.979416 -20.37141,18.257396 -12.1716,6.27798 -28.1228,6.27798 -3.97178,0 -8.26387,-0.64061 -4.29209,-0.57655 -8.90449,-1.72965 0.89686,-0.57655 1.92183,-1.28122 0.89686,-0.64061 2.04996,-1.53746 1.1531,-0.89686 2.43432,-2.04996 -7.49515,-2.56244 -13.26064,-8.39199 -5.70143,-5.89362 -9.60915,-14.349674 -3.84367,-8.456057 -5.82956,-19.154251 -1.98589,-10.762254 -1.98589,-23.061973 0,-2.882747 0.0641,-5.253006 0.12812,-2.434319 0.3203,-4.804577 0.25625,-2.43432 0.57655,-4.996761 0.32031,-2.626503 0.8328,-5.893616 6.53422,0.64061 13.38875,0.448427 2.94681,-0.06406 6.21393,-0.320305 3.33117,-0.256244 6.79047,-0.832793 3.52335,-0.57655 7.04671,-1.473404 3.58742,-0.960916 6.98265,-2.306198 -2.69056,6.662348 -4.67645,12.29972 -1.9859,5.57331 -3.33118,10.570071 -1.28122,4.9327 -1.98589,9.609156 -0.64061,4.612394 -0.64061,9.352911 0,9.22479 2.43432,17.104297 2.43432,7.879508 7.43108,14.029368 0.32031,-1.089038 0.51249,-2.242136 0.19218,-1.21716 0.38436,-2.498381 1.66559,0.512488 3.33118,0.704671 1.66559,0.192184 3.26711,0.192184 4.6124,0 8.26388,-1.729648 3.65148,-1.729649 6.34204,-4.676456 2.75462,-2.946808 4.61239,-6.726409 1.92183,-3.843663 3.07493,-8.00763 1.21716,-4.163968 1.72965,-8.391996 0.51249,-4.228029 0.51249,-8.00763 0,-3.203052 -0.76873,-7.302958 -0.76874,-4.099907 -2.04996,-8.584179 -1.28122,-4.484273 -3.01086,-9.096668 -1.66559,-4.676456 -3.52336,-8.968545 2.56244,0.832793 5.70143,1.537465 3.20305,0.704671 6.66235,1.21716 3.52336,0.448427 7.17483,0.768732 3.65148,0.256244 7.2389,0.256244 4.6124,0 8.64824,-0.512488 4.09991,-0.512488 6.98266,-1.793709 z M 54.403391,26.412254 Q 52.801865,37.23857 51.969072,47.936763 51.200339,58.570895 51.008156,69.33315 62.731326,59.531811 72.468604,47.552397 82.269943,35.508922 90.597878,21.479554 q 6.14986,7.110776 14.093432,12.555964 7.94357,5.445188 17.55272,9.481033 -9.60915,8.199813 -20.0511,15.118405 -10.441953,6.854532 -21.396391,11.915354 6.982653,11.72317 16.399626,22.036997 9.481035,10.249763 20.563595,19.794863 -20.115168,4.35615 -36.194489,13.51688 -5.060822,-13.38876 -12.555963,-24.79163 -7.43108,-11.466921 -18.001152,-20.883894 0,9.545095 0.384366,18.898007 0.384367,9.352907 1.281221,18.898007 -5.188944,0.3203 -10.057583,0.89685 -4.868639,0.64061 -9.737278,1.60153 -4.804577,1.02498 -9.673216,2.37026 -4.868639,1.34528 -9.993522,3.01087 10.377888,-33.632048 10.377888,-68.225009 0,-17.104297 -2.498381,-34.5289 6.021738,1.985892 11.595048,3.010869 5.637372,0.960916 11.595048,0.960916 2.43432,0 4.9327,-0.128122 2.498381,-0.128122 5.188944,-0.57655 z" />
    </g>
  </g>
</svg>
