<?xml version="1.0" encoding="UTF-8" standalone="no"?>
<svg
   xmlns:dc="http://purl.org/dc/elements/1.1/"
   xmlns:cc="http://creativecommons.org/ns#"
   xmlns:rdf="http://www.w3.org/1999/02/22-rdf-syntax-ns#"
   xmlns:svg="http://www.w3.org/2000/svg"
   xmlns="http://www.w3.org/2000/svg"
   width="2000"
   height="2000"
   viewBox="0 0 529.16665 529.16669"
   version="1.1"
   id="svg8">
  <defs
     id="defs2" />
  <metadata
     id="metadata5">
    <rdf:RDF>
      <cc:Work
         rdf:about="">
        <dc:format>image/svg+xml</dc:format>
        <dc:type
           rdf:resource="http://purl.org/dc/dcmitype/StillImage" />
        <dc:title></dc:title>
      </cc:Work>
    </rdf:RDF>
  </metadata>
  <g
     id="layer1">
    <g
       aria-label="K"
       id="text22"
       style="font-style:normal;font-variant:normal;font-weight:normal;font-stretch:normal;font-size:545.421px;line-height:340.886px;font-family:Shojumaru;-inkscape-font-specification:'Shojumaru, Normal';font-variant-ligatures:normal;font-variant-caps:normal;font-variant-numeric:normal;font-variant-east-asian:normal;text-align:start;letter-spacing:0px;word-spacing:0px;writing-mode:lr-tb;text-anchor:start;fill:#ff0066;fill-opacity:1;stroke:none;stroke-width:0.264583">
      <path
         d="m 209.18901,68.04001 q -6.65797,45.00789 -10.12012,89.48314 -3.19582,44.20893 -3.99478,88.95049 48.73635,-40.74678 89.21682,-90.54841 40.74678,-50.06794 75.36823,-108.391772 25.56662,29.561393 58.59015,52.198496 33.02354,22.637106 72.97137,39.415196 -39.94783,34.08881 -83.3578,62.85125 -43.40998,28.49611 -88.9505,49.5353 29.02876,48.73635 68.17763,91.61369 39.41519,42.61102 85.48835,82.29253 -83.62412,18.10968 -150.47015,56.19328 -21.03919,-55.66065 -52.1985,-103.0654 -30.89299,-47.67108 -74.8356,-86.81995 0,39.68151 1.59791,78.56406 1.59792,38.88256 5.32638,78.56407 -21.57183,1.33159 -41.81206,3.72846 -20.24023,2.66319 -40.48047,6.65797 -19.97391,4.2611 -40.214143,9.8538 -20.240234,5.5927 -41.545742,12.51699 43.143655,-139.8174 43.143655,-283.62959 0,-71.10713 -10.386436,-143.545862 25.033973,8.255885 48.203716,12.516987 23.43606,3.994783 48.20371,3.994783 10.12012,0 20.50655,-0.532638 10.38644,-0.532638 21.57183,-2.39687 z"
         style="font-style:normal;font-variant:normal;font-weight:normal;font-stretch:normal;font-size:545.421px;font-family:Shojumaru;-inkscape-font-specification:'Shojumaru, Normal';font-variant-ligatures:normal;font-variant-caps:normal;font-variant-numeric:normal;font-variant-east-asian:normal;fill:#ff0066;fill-opacity:1;stroke-width:0.264583"
         id="path840" />
    </g>
  </g>
</svg>
